<svg xmlns="http://www.w3.org/2000/svg" version="1.1" xmlns:xlink="http://www.w3.org/1999/xlink" xmlns:svgjs="http://svgjs.com/svgjs" width="1366" height="768" preserveAspectRatio="none" viewBox="0 0 1366 768"><g mask="url(&quot;#SvgjsMask1249&quot;)" fill="none"><rect width="1366" height="768" x="0" y="0" fill="url(#SvgjsRadialGradient1250)"></rect><path d="M45.36632218394294-101.46924552192486L-86.78568875133809 87.26338548225884 101.94694225284562 219.41539641753985 234.09895318812664 30.682765413356165z" fill="rgba(28, 142, 60, 0.4)" class="triangle-float3"></path><path d="M175.3901964692539-75.01558931860033L-49.975010739814905-27.112735754188556 223.29305003366568 150.3496178904685z" fill="rgba(28, 142, 60, 0.4)" class="triangle-float2"></path><path d="M217.47844590539864-37.119159308879375L-11.65939878745155-61.202517245746705-35.742756724318895 167.93532744710348 193.3950879685313 192.01868538397082z" fill="rgba(28, 142, 60, 0.4)" class="triangle-float2"></path><path d="M1110.9307544780752 45.366322183943026L1243.0827654133564 234.0989531881267 1431.81539641754 101.94694225284559 1299.663385482259-86.78568875133809z" fill="rgba(28, 142, 60, 0.4)" class="triangle-float3"></path><path d="M1388.526,351.323C1457.156,351.688,1529.665,336.792,1566.428,278.838C1605.463,217.302,1601.704,137.174,1563.884,74.884C1527.417,14.823,1458.79,-13.864,1388.526,-14.171C1317.654,-14.481,1246.955,12.564,1210.495,73.34C1173.066,135.731,1174.634,215.694,1213.873,276.963C1250.448,334.073,1320.709,350.962,1388.526,351.323" fill="rgba(28, 142, 60, 0.4)" class="triangle-float2"></path><path d="M1341.417,266.75C1389.441,266.669,1427.698,234.132,1454.733,194.44C1486.935,147.163,1521.8,90.819,1496.034,39.749C1468.727,-14.375,1401.956,-33.354,1341.417,-30.159C1286.413,-27.256,1237.594,5.568,1212.701,54.703C1189.952,99.606,1201.313,151.795,1227.433,194.825C1252.419,235.987,1293.265,266.832,1341.417,266.75" fill="rgba(28, 142, 60, 0.4)" class="triangle-float1"></path><path d="M192.203,984.481C269.158,986.17,358.148,991.199,399.676,926.388C443.198,858.466,414.415,771.449,373.104,702.16C333.003,634.901,270.508,578.853,192.203,578.404C113.239,577.951,46.615,631.369,7.675,700.065C-30.677,767.723,-42.406,852.373,-0.076,917.616C39.509,978.629,119.491,982.885,192.203,984.481" fill="rgba(28, 142, 60, 0.4)" class="triangle-float3"></path><path d="M130.268,876.206C184.898,876.417,244.775,873.681,275.564,828.554C309.672,778.561,307.816,712.035,278.338,659.179C248.081,604.926,192.353,565.941,130.268,568.029C71.082,570.02,27.145,616.762,-1.499,668.592C-29.023,718.395,-43.587,779.396,-13.096,827.439C15.894,873.117,76.167,875.997,130.268,876.206" fill="rgba(28, 142, 60, 0.4)" class="triangle-float2"></path><path d="M-29.60049607102809 544.7522808786729L-65.64299681629728 772.3156745517927 161.92039685682246 808.3581752970618 197.96289760209166 580.7947816239421z" fill="rgba(28, 142, 60, 0.4)" class="triangle-float3"></path><path d="M1399.547,1002.06C1476.581,1001.201,1555.338,980.342,1597.091,915.599C1642.236,845.597,1652.173,751.64,1605.568,682.601C1562.696,619.091,1475.986,617.614,1399.547,622.962C1334.45,627.516,1275.159,654.628,1238.061,708.313C1194.136,771.878,1157.001,852.384,1194.223,920.092C1232.274,989.307,1320.567,1002.941,1399.547,1002.06" fill="rgba(28, 142, 60, 0.4)" class="triangle-float3"></path><path d="M1242.348748315592 866.0512516844083L1441.8810013475268 750.8512516844082 1326.6810013475265 551.3189986524735 1127.148748315592 666.5189986524737z" fill="rgba(28, 142, 60, 0.4)" class="triangle-float3"></path><path d="M1282.5009976009032 819.0245804485855L1422.383782367863 595.6393380402285 1192.2995375604091 583.5811337218543z" fill="rgba(28, 142, 60, 0.4)" class="triangle-float3"></path></g><defs><mask id="SvgjsMask1249"><rect width="1366" height="768" fill="#ffffff"></rect></mask><radialGradient cx="50%" cy="50%" r="783.55" gradientUnits="userSpaceOnUse" id="SvgjsRadialGradient1250"><stop stop-color="rgba(0, 0, 0, 1)" offset="0"></stop><stop stop-color="rgba(0, 36, 12, 1)" offset="1"></stop></radialGradient><style>
            @keyframes float1 {
                0%{transform: translate(0, 0)}
                50%{transform: translate(-10px, 0)}
                100%{transform: translate(0, 0)}
            }

            .triangle-float1 {
                animation: float1 5s infinite;
            }

            @keyframes float2 {
                0%{transform: translate(0, 0)}
                50%{transform: translate(-5px, -5px)}
                100%{transform: translate(0, 0)}
            }

            .triangle-float2 {
                animation: float2 4s infinite;
            }

            @keyframes float3 {
                0%{transform: translate(0, 0)}
                50%{transform: translate(0, -10px)}
                100%{transform: translate(0, 0)}
            }

            .triangle-float3 {
                animation: float3 6s infinite;
            }
        </style></defs></svg>